<svg xmlns="http://www.w3.org/2000/svg" viewBox="0 0 96 96" role="img" aria-hidden="true" shape-rendering="crispEdges">
  <title>Retro hero ship decal</title>
  <rect width="96" height="96" fill="none"/>

  <!-- Outer silhouette -->
  <rect x="44" y="10" width="8" height="6" fill="#00b85f"/>
  <rect x="40" y="16" width="16" height="4" fill="#00b85f"/>
  <rect x="36" y="20" width="24" height="4" fill="#00b85f"/>
  <rect x="30" y="24" width="36" height="4" fill="#00b85f"/>
  <rect x="24" y="28" width="48" height="4" fill="#00b85f"/>
  <rect x="18" y="32" width="60" height="4" fill="#00b85f"/>
  <rect x="14" y="36" width="68" height="4" fill="#00b85f"/>
  <rect x="12" y="40" width="72" height="8" fill="#00b85f"/>
  <rect x="16" y="48" width="64" height="8" fill="#00b85f"/>
  <rect x="20" y="56" width="56" height="8" fill="#00b85f"/>
  <rect x="24" y="64" width="20" height="8" fill="#00b85f"/>
  <rect x="52" y="64" width="20" height="8" fill="#00b85f"/>
  <rect x="28" y="72" width="12" height="8" fill="#00b85f"/>
  <rect x="56" y="72" width="12" height="8" fill="#00b85f"/>

  <!-- Wing plates -->
  <rect x="22" y="34" width="16" height="8" fill="#00ff66"/>
  <rect x="58" y="34" width="16" height="8" fill="#00ff66"/>
  <rect x="18" y="42" width="22" height="8" fill="#00ff88"/>
  <rect x="56" y="42" width="22" height="8" fill="#00ff88"/>
  <rect x="22" y="50" width="18" height="8" fill="#7dffc7"/>
  <rect x="56" y="50" width="18" height="8" fill="#7dffc7"/>

  <!-- Core fuselage -->
  <rect x="34" y="24" width="28" height="8" fill="#00ffa2"/>
  <rect x="30" y="32" width="36" height="8" fill="#2afed0"/>
  <rect x="28" y="40" width="40" height="16" fill="#00ffa2"/>
  <rect x="32" y="56" width="32" height="12" fill="#12d6ca"/>

  <!-- Cockpit and nose -->
  <rect x="42" y="20" width="12" height="16" fill="#072f2d"/>
  <rect x="44" y="22" width="8" height="10" fill="#b5fff3"/>
  <rect x="46" y="12" width="4" height="8" fill="#d5fff9"/>

  <!-- Engine pods -->
  <rect x="30" y="74" width="8" height="10" fill="#73fff4"/>
  <rect x="58" y="74" width="8" height="10" fill="#73fff4"/>
  <rect x="32" y="84" width="4" height="4" fill="#12d6ca"/>
  <rect x="60" y="84" width="4" height="4" fill="#12d6ca"/>

  <!-- Accent scanlines -->
  <rect x="24" y="46" width="48" height="2" fill="#03221f" opacity="0.4"/>
  <rect x="28" y="54" width="40" height="2" fill="#03221f" opacity="0.32"/>
</svg>
