<svg xmlns="http://www.w3.org/2000/svg" width="128" height="128" viewBox="0 0 128 128">
  <rect width="128" height="128" fill="#4f535b"/>
  <g stroke="#2b2f35" stroke-width="2">
    <path d="M0 16H128M0 40H128M0 64H128M0 88H128M0 112H128"/>
    <path d="M16 0V128M40 0V128M64 0V128M88 0V128M112 0V128"/>
  </g>
  <g fill="#6c7078" opacity="0.9">
    <rect x="3" y="3" width="22" height="10" rx="2"/>
    <rect x="29" y="5" width="24" height="9" rx="2"/>
    <rect x="58" y="2" width="21" height="12" rx="2"/>
    <rect x="84" y="4" width="26" height="10" rx="2"/>
  </g>
  <g fill="#838892" opacity="0.85">
    <rect x="6" y="22" width="18" height="12" rx="2"/>
    <rect x="34" y="20" width="22" height="14" rx="2"/>
    <rect x="61" y="22" width="20" height="12" rx="2"/>
    <rect x="88" y="20" width="26" height="14" rx="2"/>
  </g>
</svg>
