<svg xmlns="http://www.w3.org/2000/svg" width="128" height="128" viewBox="0 0 128 128">
  <rect width="128" height="128" fill="#c9c9c9"/>
  <g stroke="#555" stroke-width="4" stroke-linejoin="round" fill="none" opacity="0.9">
    <path d="M2 4 26 2 30 16 12 20 1 15Z"/><path d="M31 4 53 6 55 20 34 22 28 14Z"/><path d="M57 2 79 4 82 18 62 22 55 12Z"/><path d="M84 4 110 2 114 16 94 20 82 14Z"/><path d="M111 4 126 8 126 20 114 22 109 15Z"/>
    <path d="M4 25 24 23 28 39 8 42 1 34Z"/><path d="M27 24 49 26 52 40 32 44 24 35Z"/><path d="M54 23 75 25 79 41 58 44 50 34Z"/><path d="M80 24 103 23 108 38 88 43 77 35Z"/><path d="M106 25 126 25 126 40 110 43 102 36Z"/>
    <path d="M1 47 20 45 24 59 4 63 1 57Z"/><path d="M23 46 45 47 49 62 28 66 20 57Z"/><path d="M50 45 72 46 76 61 55 66 48 58Z"/><path d="M78 46 99 45 103 61 82 64 75 57Z"/><path d="M105 47 126 46 126 63 108 66 101 58Z"/>
    <path d="M2 68 23 67 28 83 8 87 1 79Z"/><path d="M29 69 51 67 55 82 35 86 26 79Z"/><path d="M56 67 79 69 82 84 61 87 52 78Z"/><path d="M84 68 108 67 111 82 90 87 79 80Z"/><path d="M112 69 126 70 126 86 114 88 108 79Z"/>
    <path d="M2 91 24 89 27 103 8 107 1 101Z"/><path d="M29 89 51 91 55 106 34 109 26 100Z"/><path d="M57 90 79 89 83 105 61 109 53 100Z"/><path d="M85 90 108 89 112 105 91 109 83 100Z"/><path d="M113 91 126 93 126 108 114 110 108 101Z"/>
    <path d="M4 111 25 110 29 124 9 127 1 120Z"/><path d="M31 112 53 110 56 124 36 127 28 120Z"/><path d="M58 110 80 112 84 126 62 127 55 120Z"/><path d="M86 111 109 110 113 124 92 127 84 120Z"/><path d="M114 112 126 114 126 127 115 127 109 121Z"/>
  </g>
  <path d="M0 18C18 12 26 25 45 21s28-13 45-8 23 2 38-2v17c-16 4-21 7-39 3s-26 2-44 7-27 2-45 6V18Zm0 54c14-4 19-9 36-7s23 8 43 4 28-8 49-4v16c-17-4-27 1-47 4s-31-2-45 2S18 93 0 98V72Z" stroke="none" fill="#707070" opacity="0.65"/>
</svg>
