<svg xmlns="http://www.w3.org/2000/svg" width="128" height="128" viewBox="0 0 128 128">
  <defs>
    <linearGradient id="nb" x1="0" y1="0" x2="1" y2="1">
      <stop offset="0%" stop-color="#6e88ff"/>
      <stop offset="100%" stop-color="#9fa9ff"/>
    </linearGradient>
  </defs>
  <rect width="128" height="128" fill="url(#nb)"/>
  <g fill="#7b89ff" opacity="0.75">
    <path d="M2 4 26 2 30 16 12 20 1 15Z"/>
    <path d="M31 4 53 6 55 20 34 22 28 14Z"/>
    <path d="M57 2 79 4 82 18 62 22 55 12Z"/>
    <path d="M84 4 110 2 114 16 94 20 82 14Z"/>
    <path d="M4 25 24 23 28 39 8 42 1 34Z"/>
    <path d="M27 24 49 26 52 40 32 44 24 35Z"/>
    <path d="M54 23 75 25 79 41 58 44 50 34Z"/>
    <path d="M80 24 103 23 108 38 88 43 77 35Z"/>
    <path d="M1 47 20 45 24 59 4 63 1 57Z"/>
    <path d="M50 45 72 46 76 61 55 66 48 58Z"/>
    <path d="M84 68 108 67 111 82 90 87 79 80Z"/>
    <path d="M29 89 51 91 55 106 34 109 26 100Z"/>
  </g>
  <path d="M0 18C18 12 26 25 45 21s28-13 45-8 23 2 38-2v17c-16 4-21 7-39 3s-26 2-44 7-27 2-45 6V18Zm0 54c14-4 19-9 36-7s23 8 43 4 28-8 49-4v16c-17-4-27 1-47 4s-31-2-45 2S18 93 0 98V72Z" fill="#92a0ff" opacity="0.42"/>
  <g stroke="#6f7fff" stroke-width="2" opacity="0.4">
    <path d="M0 22H128"/>
    <path d="M0 76H128"/>
  </g>
</svg>
